[
  "TEMPO_68",
  "TIME_SHIFT_2600",
  "NOTE_ON_67_32",
  "TIME_SHIFT_870",
  "NOTE_OFF_67",
  "NOTE_ON_67_32",
  "TIME_SHIFT_1310",
  "NOTE_OFF_67",
  "NOTE_ON_64_31",
  "TIME_SHIFT_430",
  "NOTE_OFF_64",
  "NOTE_ON_64_31",
  "TIME_SHIFT_870",
  "NOTE_OFF_64",
  "NOTE_ON_67_31",
  "TIME_SHIFT_870",
  "NOTE_OFF_67",
  "NOTE_ON_67_31",
  "TIME_SHIFT_1310",
  "NOTE_OFF_67",
  "NOTE_ON_62_25",
  "TIME_SHIFT_430",
  "NOTE_OFF_62",
  "NOTE_ON_62_25",
  "TIME_SHIFT_870",
  "NOTE_OFF_62",
  "NOTE_ON_64_32",
  "TIME_SHIFT_870",
  "NOTE_OFF_64",
  "NOTE_ON_65_32",
  "TIME_SHIFT_870",
  "NOTE_OFF_65",
  "NOTE_ON_67_28",
  "TIME_SHIFT_870",
  "NOTE_OFF_67",
  "NOTE_ON_69_30",
  "TIME_SHIFT_870",
  "NOTE_OFF_69",
  "NOTE_ON_71_26",
  "TIME_SHIFT_870",
  "NOTE_OFF_71",
  "NOTE_ON_67_30",
  "TIME_SHIFT_2610",
  "NOTE_OFF_67",
  "NOTE_ON_67_31",
  "TIME_SHIFT_870",
  "NOTE_OFF_67",
  "NOTE_ON_67_31",
  "TIME_SHIFT_1300",
  "NOTE_OFF_67",
  "NOTE_ON_64_31",
  "TIME_SHIFT_440",
  "NOTE_OFF_64",
  "NOTE_ON_64_26",
  "TIME_SHIFT_870",
  "NOTE_OFF_64",
  "NOTE_ON_67_32",
  "TIME_SHIFT_870",
  "NOTE_OFF_67",
  "NOTE_ON_67_27",
  "TIME_SHIFT_1300",
  "NOTE_OFF_67",
  "NOTE_ON_62_22",
  "TIME_SHIFT_430",
  "NOTE_OFF_62",
  "NOTE_ON_62_21",
  "TIME_SHIFT_870",
  "NOTE_OFF_62",
  "NOTE_ON_74_29",
  "TIME_SHIFT_870",
  "NOTE_OFF_74",
  "NOTE_ON_73_25",
  "TIME_SHIFT_870",
  "NOTE_OFF_73",
  "NOTE_ON_74_26",
  "TIME_SHIFT_870",
  "NOTE_OFF_74",
  "NOTE_ON_76_22",
  "TIME_SHIFT_870",
  "NOTE_OFF_76",
  "NOTE_ON_69_25",
  "TIME_SHIFT_870",
  "NOTE_OFF_69",
  "NOTE_ON_74_29",
  "TIME_SHIFT_2590",
  "NOTE_OFF_74",
  "TIME_SHIFT_20",
  "NOTE_ON_67_29",
  "TIME_SHIFT_870",
  "NOTE_OFF_67",
  "NOTE_ON_76_27",
  "TIME_SHIFT_1300",
  "NOTE_OFF_76",
  "NOTE_ON_76_25",
  "TIME_SHIFT_440",
  "NOTE_OFF_76",
  "NOTE_ON_74_29",
  "TIME_SHIFT_870",
  "NOTE_OFF_74",
  "NOTE_ON_72_26",
  "TIME_SHIFT_870",
  "NOTE_OFF_72",
  "NOTE_ON_72_31",
  "TIME_SHIFT_1300",
  "NOTE_OFF_72",
  "NOTE_ON_71_31",
  "TIME_SHIFT_440",
  "NOTE_OFF_71",
  "NOTE_ON_71_31",
  "TIME_SHIFT_870",
  "NOTE_OFF_71",
  "NOTE_ON_72_27",
  "TIME_SHIFT_870",
  "NOTE_OFF_72",
  "NOTE_ON_74_25",
  "TIME_SHIFT_870",
  "NOTE_OFF_74",
  "NOTE_ON_71_26",
  "TIME_SHIFT_870",
  "NOTE_OFF_71",
  "NOTE_ON_69_29",
  "TIME_SHIFT_870",
  "NOTE_OFF_69",
  "NOTE_ON_67_31",
  "TIME_SHIFT_860",
  "NOTE_OFF_67",
  "NOTE_ON_72_28",
  "TIME_SHIFT_2610",
  "NOTE_OFF_72",
  "NOTE_ON_72_27",
  "TIME_SHIFT_870",
  "NOTE_OFF_72",
  "NOTE_ON_72_30",
  "TIME_SHIFT_1310",
  "NOTE_OFF_72",
  "NOTE_ON_69_28",
  "TIME_SHIFT_430",
  "NOTE_OFF_69",
  "NOTE_ON_69_27",
  "TIME_SHIFT_870",
  "NOTE_OFF_69",
  "NOTE_ON_72_29",
  "TIME_SHIFT_870",
  "NOTE_OFF_72",
  "NOTE_ON_72_29",
  "TIME_SHIFT_1310",
  "NOTE_OFF_72",
  "NOTE_ON_67_32",
  "TIME_SHIFT_430",
  "NOTE_OFF_67",
  "NOTE_ON_67_28",
  "TIME_SHIFT_870",
  "NOTE_OFF_67",
  "NOTE_ON_67_23",
  "TIME_SHIFT_870",
  "NOTE_OFF_67",
  "NOTE_ON_69_29",
  "TIME_SHIFT_870",
  "NOTE_OFF_69",
  "NOTE_ON_72_27",
  "TIME_SHIFT_870",
  "NOTE_OFF_72",
  "NOTE_ON_67_29",
  "TIME_SHIFT_870",
  "NOTE_OFF_67",
  "NOTE_ON_74_27",
  "TIME_SHIFT_870",
  "NOTE_OFF_74",
  "NOTE_ON_72_29",
  "TIME_SHIFT_2320",
  "NOTE_OFF_72",
  "TIME_SHIFT_56800",
  "TEMPO_80",
  "TIME_SHIFT_10",
  "NOTE_ON_70_25",
  "TIME_SHIFT_1540",
  "NOTE_OFF_70",
  "NOTE_ON_69_25",
  "TIME_SHIFT_760",
  "NOTE_OFF_69",
  "NOTE_ON_67_30",
  "TIME_SHIFT_770",
  "NOTE_OFF_67",
  "NOTE_ON_69_27",
  "TIME_SHIFT_520",
  "NOTE_OFF_69",
  "NOTE_ON_67_28",
  "TIME_SHIFT_250",
  "NOTE_OFF_67",
  "NOTE_ON_65_27",
  "TIME_SHIFT_2310",
  "NOTE_OFF_65",
  "NOTE_ON_72_24",
  "TIME_SHIFT_1540",
  "NOTE_OFF_72",
  "NOTE_ON_70_26",
  "TIME_SHIFT_770",
  "NOTE_OFF_70",
  "NOTE_ON_72_23",
  "TIME_SHIFT_770",
  "NOTE_OFF_72",
  "NOTE_ON_74_24",
  "TIME_SHIFT_2310",
  "NOTE_OFF_74",
  "NOTE_ON_72_27",
  "TIME_SHIFT_510",
  "NOTE_OFF_72",
  "NOTE_ON_74_24",
  "TIME_SHIFT_250",
  "NOTE_OFF_74",
  "NOTE_ON_75_21",
  "TIME_SHIFT_770",
  "NOTE_OFF_75",
  "NOTE_ON_67_24",
  "TIME_SHIFT_1540",
  "NOTE_OFF_67",
  "NOTE_ON_75_25",
  "TIME_SHIFT_760",
  "NOTE_OFF_75",
  "TIME_SHIFT_10",
  "NOTE_ON_74_26",
  "TIME_SHIFT_770",
  "NOTE_OFF_74",
  "NOTE_ON_65_29",
  "TIME_SHIFT_1540",
  "NOTE_OFF_65",
  "NOTE_ON_70_24",
  "TIME_SHIFT_500",
  "NOTE_OFF_70",
  "TIME_SHIFT_10",
  "NOTE_ON_72_21",
  "TIME_SHIFT_260",
  "NOTE_OFF_72",
  "NOTE_ON_74_22",
  "TIME_SHIFT_770",
  "NOTE_OFF_74",
  "NOTE_ON_72_23",
  "TIME_SHIFT_510",
  "NOTE_OFF_72",
  "NOTE_ON_70_27",
  "TIME_SHIFT_260",
  "NOTE_OFF_70",
  "NOTE_ON_72_27",
  "TIME_SHIFT_770",
  "NOTE_OFF_72",
  "NOTE_ON_70_27",
  "TIME_SHIFT_510",
  "NOTE_OFF_70",
  "NOTE_ON_69_26",
  "TIME_SHIFT_260",
  "NOTE_OFF_69",
  "NOTE_ON_70_27",
  "TIME_SHIFT_2300",
  "NOTE_OFF_70",
  "NOTE_ON_69_29",
  "TIME_SHIFT_520",
  "NOTE_OFF_69",
  "NOTE_ON_70_24",
  "TIME_SHIFT_250",
  "NOTE_OFF_70",
  "NOTE_ON_72_27",
  "TIME_SHIFT_770",
  "NOTE_OFF_72",
  "NOTE_ON_65_26",
  "TIME_SHIFT_1540",
  "NOTE_OFF_65",
  "NOTE_ON_70_25",
  "TIME_SHIFT_510",
  "NOTE_OFF_70",
  "NOTE_ON_72_23",
  "TIME_SHIFT_260",
  "NOTE_OFF_72",
  "NOTE_ON_74_24",
  "TIME_SHIFT_770",
  "NOTE_OFF_74",
  "NOTE_ON_65_25",
  "TIME_SHIFT_1540",
  "NOTE_OFF_65",
  "NOTE_ON_72_26",
  "TIME_SHIFT_500",
  "NOTE_OFF_72",
  "TIME_SHIFT_10",
  "NOTE_ON_74_24",
  "TIME_SHIFT_260",
  "NOTE_OFF_74",
  "NOTE_ON_75_27",
  "TIME_SHIFT_770",
  "NOTE_OFF_75",
  "NOTE_ON_69_29",
  "TIME_SHIFT_1530",
  "NOTE_OFF_69",
  "NOTE_ON_74_25",
  "TIME_SHIFT_510",
  "NOTE_OFF_74",
  "TIME_SHIFT_10",
  "NOTE_ON_75_25",
  "TIME_SHIFT_250",
  "NOTE_OFF_75",
  "NOTE_ON_77_28",
  "TIME_SHIFT_3080",
  "NOTE_OFF_77",
  "NOTE_ON_79_25",
  "TIME_SHIFT_1540",
  "NOTE_OFF_79",
  "NOTE_ON_77_25",
  "TIME_SHIFT_770",
  "NOTE_OFF_77",
  "NOTE_ON_75_20",
  "TIME_SHIFT_770",
  "NOTE_OFF_75",
  "NOTE_ON_74_25",
  "TIME_SHIFT_510",
  "NOTE_OFF_74",
  "NOTE_ON_72_21",
  "TIME_SHIFT_260",
  "NOTE_OFF_72",
  "NOTE_ON_70_25",
  "TIME_SHIFT_1530",
  "NOTE_OFF_70",
  "NOTE_ON_75_23",
  "TIME_SHIFT_770",
  "NOTE_OFF_75",
  "NOTE_ON_74_24",
  "TIME_SHIFT_1540",
  "NOTE_OFF_74",
  "NOTE_ON_72_26",
  "TIME_SHIFT_1530",
  "NOTE_OFF_72",
  "TIME_SHIFT_10",
  "NOTE_ON_77_24",
  "TIME_SHIFT_3070",
  "NOTE_OFF_77",
  "TIME_SHIFT_10",
  "NOTE_ON_79_26",
  "TIME_SHIFT_1540",
  "NOTE_OFF_79",
  "NOTE_ON_77_22",
  "TIME_SHIFT_770",
  "NOTE_OFF_77",
  "NOTE_ON_75_23",
  "TIME_SHIFT_760",
  "NOTE_OFF_75",
  "NOTE_ON_74_24",
  "TIME_SHIFT_520",
  "NOTE_OFF_74",
  "NOTE_ON_72_23",
  "TIME_SHIFT_250",
  "NOTE_OFF_72",
  "NOTE_ON_70_25",
  "TIME_SHIFT_1540",
  "NOTE_OFF_70",
  "NOTE_ON_75_25",
  "TIME_SHIFT_770",
  "NOTE_OFF_75",
  "NOTE_ON_74_26",
  "TIME_SHIFT_3070",
  "NOTE_OFF_74",
  "TIME_SHIFT_10",
  "NOTE_ON_72_26",
  "TIME_SHIFT_3070",
  "NOTE_OFF_72",
  "NOTE_ON_70_26",
  "TIME_SHIFT_5420",
  "TEMPO_76",
  "TIME_SHIFT_40",
  "TEMPO_76",
  "TIME_SHIFT_40",
  "TEMPO_76",
  "TIME_SHIFT_70",
  "TEMPO_72",
  "TIME_SHIFT_40",
  "TEMPO_72",
  "TIME_SHIFT_80",
  "TEMPO_72",
  "TIME_SHIFT_40",
  "TEMPO_68",
  "TIME_SHIFT_80",
  "TEMPO_68",
  "TIME_SHIFT_70",
  "TEMPO_64",
  "TIME_SHIFT_50",
  "TEMPO_64",
  "TIME_SHIFT_100",
  "TEMPO_64",
  "TIME_SHIFT_30",
  "TEMPO_60",
  "TIME_SHIFT_50",
  "TEMPO_60",
  "TIME_SHIFT_90",
  "TEMPO_60",
  "TIME_SHIFT_40",
  "TEMPO_56",
  "TIME_SHIFT_40",
  "TEMPO_80",
  "TIME_SHIFT_2240",
  "NOTE_OFF_70"
]